<mxfile host="Electron" modified="2023-04-24T17:24:23.449Z" agent="Mozilla/5.0 (Macintosh; Intel Mac OS X 10_15_7) AppleWebKit/537.36 (KHTML, like Gecko) draw.io/21.2.1 Chrome/112.0.5615.87 Electron/24.1.2 Safari/537.36" etag="z5_F6iKRjhsob-sg-EdO" version="21.2.1" type="device">
  <diagram name="Page-1" id="4x3ElIspKgY5pUpqm8np">
    <mxGraphModel dx="1026" dy="673" grid="1" gridSize="10" guides="1" tooltips="1" connect="1" arrows="1" fold="1" page="1" pageScale="1" pageWidth="827" pageHeight="1169" math="0" shadow="0">
      <root>
        <mxCell id="0" />
        <mxCell id="1" parent="0" />
        <mxCell id="KYLArElenQbxAAdKERNl-2" value="&quot;Normal&quot; Events" style="whiteSpace=wrap;html=1;aspect=fixed;" vertex="1" parent="1">
          <mxGeometry x="40" y="110" width="80" height="80" as="geometry" />
        </mxCell>
        <mxCell id="KYLArElenQbxAAdKERNl-4" value="E-Commerce Events" style="ellipse;whiteSpace=wrap;html=1;" vertex="1" parent="1">
          <mxGeometry x="20" y="10" width="120" height="80" as="geometry" />
        </mxCell>
        <mxCell id="KYLArElenQbxAAdKERNl-8" style="edgeStyle=orthogonalEdgeStyle;rounded=0;orthogonalLoop=1;jettySize=auto;html=1;exitX=1;exitY=0.5;exitDx=0;exitDy=0;entryX=0;entryY=0.5;entryDx=0;entryDy=0;" edge="1" parent="1" source="KYLArElenQbxAAdKERNl-5" target="KYLArElenQbxAAdKERNl-6">
          <mxGeometry relative="1" as="geometry" />
        </mxCell>
        <mxCell id="KYLArElenQbxAAdKERNl-11" style="edgeStyle=orthogonalEdgeStyle;rounded=0;orthogonalLoop=1;jettySize=auto;html=1;exitX=1;exitY=0.75;exitDx=0;exitDy=0;entryX=0;entryY=0.5;entryDx=0;entryDy=0;" edge="1" parent="1" source="KYLArElenQbxAAdKERNl-5" target="KYLArElenQbxAAdKERNl-10">
          <mxGeometry relative="1" as="geometry" />
        </mxCell>
        <mxCell id="KYLArElenQbxAAdKERNl-22" style="edgeStyle=orthogonalEdgeStyle;rounded=0;orthogonalLoop=1;jettySize=auto;html=1;exitX=1;exitY=1;exitDx=0;exitDy=0;entryX=0;entryY=0.5;entryDx=0;entryDy=0;" edge="1" parent="1" source="KYLArElenQbxAAdKERNl-5" target="KYLArElenQbxAAdKERNl-23">
          <mxGeometry relative="1" as="geometry">
            <mxPoint x="290" y="550" as="targetPoint" />
          </mxGeometry>
        </mxCell>
        <mxCell id="KYLArElenQbxAAdKERNl-5" value="Website Visit&lt;br&gt;firmenai.de" style="whiteSpace=wrap;html=1;aspect=fixed;" vertex="1" parent="1">
          <mxGeometry x="80" y="290" width="80" height="80" as="geometry" />
        </mxCell>
        <mxCell id="KYLArElenQbxAAdKERNl-9" style="edgeStyle=orthogonalEdgeStyle;rounded=0;orthogonalLoop=1;jettySize=auto;html=1;exitX=1;exitY=0.5;exitDx=0;exitDy=0;entryX=0;entryY=0.5;entryDx=0;entryDy=0;" edge="1" parent="1" source="KYLArElenQbxAAdKERNl-6" target="KYLArElenQbxAAdKERNl-7">
          <mxGeometry relative="1" as="geometry" />
        </mxCell>
        <mxCell id="KYLArElenQbxAAdKERNl-6" value="Contactform Site" style="whiteSpace=wrap;html=1;aspect=fixed;" vertex="1" parent="1">
          <mxGeometry x="270" y="210" width="80" height="80" as="geometry" />
        </mxCell>
        <mxCell id="KYLArElenQbxAAdKERNl-7" value="Contactform submission" style="ellipse;whiteSpace=wrap;html=1;" vertex="1" parent="1">
          <mxGeometry x="470" y="130" width="120" height="80" as="geometry" />
        </mxCell>
        <mxCell id="KYLArElenQbxAAdKERNl-13" style="edgeStyle=orthogonalEdgeStyle;rounded=0;orthogonalLoop=1;jettySize=auto;html=1;exitX=1;exitY=0.5;exitDx=0;exitDy=0;entryX=0;entryY=0.5;entryDx=0;entryDy=0;" edge="1" parent="1" source="KYLArElenQbxAAdKERNl-10" target="KYLArElenQbxAAdKERNl-12">
          <mxGeometry relative="1" as="geometry" />
        </mxCell>
        <mxCell id="KYLArElenQbxAAdKERNl-10" value="Free Trial / Register / Login Buttons" style="whiteSpace=wrap;html=1;aspect=fixed;" vertex="1" parent="1">
          <mxGeometry x="270" y="350" width="80" height="80" as="geometry" />
        </mxCell>
        <mxCell id="KYLArElenQbxAAdKERNl-16" style="edgeStyle=orthogonalEdgeStyle;rounded=0;orthogonalLoop=1;jettySize=auto;html=1;exitX=1;exitY=0.5;exitDx=0;exitDy=0;" edge="1" parent="1" source="KYLArElenQbxAAdKERNl-12" target="KYLArElenQbxAAdKERNl-15">
          <mxGeometry relative="1" as="geometry" />
        </mxCell>
        <mxCell id="KYLArElenQbxAAdKERNl-12" value="https://firmenai.fief&lt;br&gt;.dev/login" style="whiteSpace=wrap;html=1;aspect=fixed;" vertex="1" parent="1">
          <mxGeometry x="400" y="350" width="110" height="110" as="geometry" />
        </mxCell>
        <mxCell id="KYLArElenQbxAAdKERNl-18" style="edgeStyle=orthogonalEdgeStyle;rounded=0;orthogonalLoop=1;jettySize=auto;html=1;exitX=1;exitY=0.5;exitDx=0;exitDy=0;entryX=0;entryY=0.5;entryDx=0;entryDy=0;" edge="1" parent="1" source="KYLArElenQbxAAdKERNl-15" target="KYLArElenQbxAAdKERNl-17">
          <mxGeometry relative="1" as="geometry" />
        </mxCell>
        <mxCell id="KYLArElenQbxAAdKERNl-15" value="Register/Login Success&lt;br&gt;app.firmenai.de" style="ellipse;whiteSpace=wrap;html=1;" vertex="1" parent="1">
          <mxGeometry x="570" y="360" width="120" height="80" as="geometry" />
        </mxCell>
        <mxCell id="KYLArElenQbxAAdKERNl-20" style="edgeStyle=orthogonalEdgeStyle;rounded=0;orthogonalLoop=1;jettySize=auto;html=1;exitX=1;exitY=0.5;exitDx=0;exitDy=0;entryX=0;entryY=0.5;entryDx=0;entryDy=0;" edge="1" parent="1" source="KYLArElenQbxAAdKERNl-17" target="KYLArElenQbxAAdKERNl-19">
          <mxGeometry relative="1" as="geometry" />
        </mxCell>
        <mxCell id="KYLArElenQbxAAdKERNl-17" value="product site visit&lt;br&gt;https://app.firmenai.de/docubot&lt;br&gt;/briefmeet&lt;br&gt;/brainsync&lt;br&gt;/hashtaghero&lt;br&gt;/chat&lt;br&gt;/basicimage" style="whiteSpace=wrap;html=1;aspect=fixed;" vertex="1" parent="1">
          <mxGeometry x="760" y="345" width="110" height="110" as="geometry" />
        </mxCell>
        <mxCell id="KYLArElenQbxAAdKERNl-19" value="&quot;Sign up for waitlist&quot;&lt;br&gt;button / form submission (with product name)" style="ellipse;whiteSpace=wrap;html=1;" vertex="1" parent="1">
          <mxGeometry x="960" y="360" width="120" height="80" as="geometry" />
        </mxCell>
        <mxCell id="KYLArElenQbxAAdKERNl-23" value="Click on &quot;pricing&quot; buttons&amp;nbsp;&lt;br style=&quot;border-color: var(--border-color);&quot;&gt;- homepage&lt;br style=&quot;border-color: var(--border-color);&quot;&gt;-&amp;nbsp;https://firmenai.de/prices.html" style="ellipse;whiteSpace=wrap;html=1;" vertex="1" parent="1">
          <mxGeometry x="440" y="510" width="120" height="80" as="geometry" />
        </mxCell>
      </root>
    </mxGraphModel>
  </diagram>
</mxfile>
